<?xml version="1.0" encoding="utf-8"?>
<!-- Generator: Adobe Illustrator 24.0.0, SVG Export Plug-In . SVG Version: 6.00 Build 0)  -->
<svg version="1.1" id="Capa_1" xmlns="http://www.w3.org/2000/svg" xmlns:xlink="http://www.w3.org/1999/xlink" x="0px" y="0px"
	 viewBox="0 0 522.7 505.4" style="enable-background:new 0 0 522.7 505.4;" xml:space="preserve">
<style type="text/css">
	.st0{fill:none;stroke:#000000;stroke-width:15;stroke-miterlimit:10;}
	.st1{fill:none;stroke:#000000;stroke-width:15;stroke-linecap:round;stroke-miterlimit:10;}
	.st2{fill:none;stroke:#000000;stroke-width:15;stroke-linecap:round;stroke-linejoin:round;stroke-miterlimit:10;}
</style>
<g>
	<circle class="st0" cx="43" cy="329.1" r="33.3"/>
	<circle class="st0" cx="320" cy="462.5" r="33.3"/>
	<circle class="st0" cx="478.6" cy="272.6" r="33.3"/>
	<circle class="st0" cx="309.6" cy="43.9" r="33.3"/>
	<circle class="st0" cx="143.1" cy="43.9" r="33.3"/>
	<path class="st0" d="M345.7,372.8H166.1c-12.7,0-23-10.3-23-23v-16.4V169.7c0-12.7,10.3-23,23-23h179.6c12.7,0,23,10.3,23,23v180.1
		C368.7,362.5,358.4,372.8,345.7,372.8z"/>
	<path class="st1" d="M183.3,333V199.1c0-6.9,5.6-12.5,12.5-12.5h121.5c6.9,0,12.5,5.6,12.5,12.5v121.4c0,6.9-5.6,12.5-12.5,12.5
		h-87.7"/>
	<g>
		<path d="M218.1,209.2c-6.5,0-11.8,5.3-11.8,11.8c0,6.5,5.3,11.8,11.8,11.8c6.5,0,11.8-5.3,11.8-11.8
			C229.9,214.5,224.6,209.2,218.1,209.2L218.1,209.2z"/>
	</g>
	<g>
		<path d="M255.9,247.5c-6.5,0-11.8,5.3-11.8,11.8c0,6.5,5.3,11.8,11.8,11.8c6.5,0,11.8-5.3,11.8-11.8
			C267.7,252.8,262.4,247.5,255.9,247.5L255.9,247.5z"/>
	</g>
	<g>
		<path d="M256.4,209.2c-6.5,0-11.8,5.3-11.8,11.8c0,6.5,5.3,11.8,11.8,11.8c6.5,0,11.8-5.3,11.8-11.8
			C268.2,214.5,262.9,209.2,256.4,209.2L256.4,209.2z"/>
	</g>
	<g>
		<path d="M218.1,247.6c-6.5,0-11.8,5.3-11.8,11.8c0,6.5,5.3,11.8,11.8,11.8c6.5,0,11.8-5.3,11.8-11.8
			C229.9,252.8,224.6,247.6,218.1,247.6L218.1,247.6z"/>
	</g>
	<g>
		<path d="M218.1,285.9c-6.5,0-11.8,5.3-11.8,11.8c0,6.5,5.3,11.8,11.8,11.8c6.5,0,11.8-5.3,11.8-11.8
			C229.9,291.2,224.6,285.9,218.1,285.9L218.1,285.9z"/>
	</g>
	<g>
		<path d="M256.4,285.9c-6.5,0-11.8,5.3-11.8,11.8c0,6.5,5.3,11.8,11.8,11.8c6.5,0,11.8-5.3,11.8-11.8
			C268.2,291.2,262.9,285.9,256.4,285.9L256.4,285.9z"/>
	</g>
	<g>
		<path d="M294.7,285.9c-6.5,0-11.8,5.3-11.8,11.8c0,6.5,5.3,11.8,11.8,11.8s11.8-5.3,11.8-11.8
			C306.5,291.2,301.3,285.9,294.7,285.9L294.7,285.9z"/>
	</g>
	<g>
		<path d="M294.7,209.2c-6.5,0-11.8,5.3-11.8,11.8c0,6.5,5.3,11.8,11.8,11.8s11.8-5.3,11.8-11.8
			C306.5,214.5,301.3,209.2,294.7,209.2L294.7,209.2z"/>
	</g>
	<g>
		<path d="M294.7,247.5c-6.5,0-11.8,5.3-11.8,11.8c0,6.5,5.3,11.8,11.8,11.8s11.8-5.3,11.8-11.8
			C306.5,252.8,301.3,247.5,294.7,247.5L294.7,247.5z"/>
	</g>
	<line class="st1" x1="102.5" y1="331.8" x2="143.1" y2="331.8"/>
	<polyline class="st2" points="371,204.5 411.6,204.5 433.1,226 	"/>
	<polyline class="st2" points="296.4,439 273.7,417.4 273.7,372.8 	"/>
	<line class="st1" x1="309.6" y1="77.2" x2="309.6" y2="146.7"/>
	<polyline class="st2" points="172,60.5 212.7,100.1 212.7,146.7 	"/>
</g>
</svg>
